<mxfile host="app.diagrams.net" modified="2023-08-28T23:22:13.719Z" agent="Mozilla/5.0 (Windows NT 10.0; Win64; x64) AppleWebKit/537.36 (KHTML, like Gecko) Chrome/115.0.0.0 Safari/537.36 OPR/101.0.0.0" etag="CgIfYw2fjgk6MG1b2Ukm" version="21.6.9" type="github">
  <diagram name="PÃ¡gina-1" id="L0PrQWR51s-A8T4FclK4">
    <mxGraphModel dx="138" dy="75" grid="0" gridSize="10" guides="1" tooltips="1" connect="1" arrows="1" fold="1" page="0" pageScale="1" pageWidth="827" pageHeight="1169" background="none" math="0" shadow="0">
      <root>
        <mxCell id="0" />
        <mxCell id="1" parent="0" />
        <mxCell id="EcwNttuTjNTyL5dNqpBT-2" value="" style="shape=mxgraph.pid.pumps.centrifugal_pump_1;html=1;pointerEvents=1;align=center;verticalLabelPosition=bottom;verticalAlign=top;dashed=0;" vertex="1" parent="1">
          <mxGeometry x="380" y="400" width="70" height="67" as="geometry" />
        </mxCell>
        <mxCell id="EcwNttuTjNTyL5dNqpBT-3" value="" style="rounded=0;whiteSpace=wrap;html=1;" vertex="1" parent="1">
          <mxGeometry x="450" y="398" width="10" height="24" as="geometry" />
        </mxCell>
      </root>
    </mxGraphModel>
  </diagram>
</mxfile>
